<svg xmlns="http://www.w3.org/2000/svg" width="159" height="25" viewBox="0 0 159 25" fill="none"><path d="M155.996 14.4109C155.028 15.3792 154.06 16.3474 151.908 16.5626C149.756 16.7778 148.25 15.164 147.927 14.5185L158.793 12.3668C158.793 8.1711 155.458 4.83601 151.262 4.83601C147.067 4.83601 143.732 8.1711 143.732 12.3668C143.732 16.5626 147.067 19.8977 151.262 19.8977C153.952 19.8977 156.319 18.4991 157.61 16.3474L155.996 14.4109ZM148.573 9.13935C149.218 8.38626 150.187 8.06351 151.37 8.06351C152.338 8.06351 153.091 8.27868 153.737 8.8166C154.167 9.13935 154.598 9.56968 154.813 10.1076L147.605 11.6138C147.712 10.6455 148.035 9.78485 148.573 9.13935Z" fill="#EF3B66"></path><path d="M27.972 14.4109C27.0038 15.3792 26.0355 16.3474 23.8839 16.5626C21.7322 16.7778 20.226 15.164 19.9033 14.5185L30.7692 12.3668C30.7692 8.1711 27.4341 4.83601 23.2384 4.83601C19.0426 4.83601 15.7075 8.1711 15.7075 12.3668C15.7075 16.5626 19.0426 19.8977 23.2384 19.8977C25.9279 19.8977 28.2948 18.4991 29.5858 16.3474L27.972 14.4109ZM20.5488 9.13935C21.1943 8.38626 22.1625 8.06351 23.3459 8.06351C24.3142 8.06351 25.0673 8.27868 25.7128 8.8166C26.1431 9.13935 26.5734 9.56968 26.7886 10.1076L19.5805 11.6138C19.5805 10.6455 20.0109 9.78485 20.5488 9.13935Z" fill="#EF3B66"></path><path d="M80.6869 4.83601C76.5988 4.83601 73.1561 8.1711 73.1561 12.3668C73.1561 16.455 76.4912 19.8977 80.6869 19.8977C84.7751 19.8977 88.2178 16.5626 88.2178 12.3668C88.2178 8.1711 84.8827 4.83601 80.6869 4.83601ZM80.6869 16.3474C78.4277 16.3474 76.5988 14.5185 76.5988 12.2593C76.5988 10 78.4277 8.1711 80.6869 8.1711C82.9462 8.1711 84.7751 10 84.7751 12.2593C84.7751 14.6261 82.9462 16.3474 80.6869 16.3474Z" fill="#EF3B66"></path><path d="M7.96116 5.15871C6.88533 5.15871 6.02467 5.37388 5.164 5.69663C4.5185 5.9118 3.873 6.34213 3.44267 6.88005V5.2663H0V19.3597H3.55025V12.2592C3.55025 10.9682 3.873 9.99996 4.5185 9.24688C5.164 8.60138 6.02466 8.27863 7.20808 8.27863C8.17633 8.27863 8.92941 8.60138 9.46733 9.1393C10.0052 9.67721 10.2204 10.5379 10.2204 11.7213V19.3597H13.7707V11.291C13.7707 9.24688 13.2327 7.74071 12.1569 6.66488C11.1887 5.69663 9.79008 5.15871 7.96116 5.15871Z" fill="#EF3B66"></path><path d="M65.4114 5.15875C64.4431 5.15875 63.5824 5.26633 62.7218 5.58908C62.0763 5.80425 61.4308 6.23458 61.0004 6.66492V-0.00524902H57.4502V19.4673H61.0004V12.3668C61.0004 11.0758 61.3232 10.1076 61.9687 9.3545C62.6142 8.709 63.4749 8.38625 64.6583 8.38625C65.6265 8.38625 66.3796 8.709 66.9175 9.24692C67.4554 9.78483 67.6706 10.6455 67.6706 11.8289V19.4673H71.2209V11.3986C71.2209 9.3545 70.6829 7.84833 69.6071 6.7725C68.6389 5.69667 67.1327 5.15875 65.4114 5.15875Z" fill="#EF3B66"></path><path d="M108.121 12.7972C108.121 14.0882 107.906 14.9488 107.475 15.5943C107.045 16.1322 106.399 16.455 105.431 16.455C104.463 16.455 103.817 16.1322 103.387 15.5943C102.957 14.9488 102.742 14.0882 102.742 12.7972V5.26633H99.1913V12.7972C99.1913 14.0882 98.9761 14.9488 98.5458 15.5943C98.1155 16.1322 97.3624 16.455 96.5017 16.455C95.5335 16.455 94.888 16.1322 94.4577 15.5943C94.0273 15.0564 93.8121 14.0882 93.8121 12.7972V5.26633H90.2619V13.0123C90.2619 15.0564 90.7998 16.6702 91.8757 17.8536C92.9515 19.037 94.4576 19.5749 96.5017 19.5749C97.5776 19.5749 98.5458 19.3597 99.2989 19.037C99.9444 18.7142 100.59 18.1763 101.02 17.5308C101.988 18.8218 103.495 19.5749 105.539 19.5749C107.583 19.5749 109.089 19.037 110.165 17.8536C111.241 16.6702 111.779 15.0564 111.779 13.0123V5.26633H108.228V12.7972H108.121Z" fill="#EF3B66"></path><path d="M140.396 6.77246C139.32 5.69663 137.922 5.2663 136.2 5.2663C135.125 5.2663 134.049 5.48146 133.188 5.9118C132.328 6.34213 131.682 6.77246 131.037 7.41796C130.606 6.77246 129.961 6.23455 129.208 5.80421C128.347 5.37388 127.486 5.15871 126.41 5.15871C125.442 5.15871 124.582 5.37388 123.721 5.69663C123.075 6.01938 122.537 6.34213 122 6.88005V5.2663H118.557V19.3597H122.107V12.2592C122.107 10.9682 122.43 9.99996 123.075 9.35446C123.721 8.70896 124.474 8.38621 125.55 8.38621C126.518 8.38621 127.271 8.70896 127.701 9.24688C128.239 9.7848 128.455 10.6455 128.455 11.8289V19.4673H132.005V12.3668C132.005 11.0758 132.327 10.1075 132.973 9.46205C133.618 8.81655 134.372 8.4938 135.447 8.4938C136.416 8.4938 137.169 8.81655 137.599 9.35446C138.137 9.89238 138.352 10.753 138.352 11.9365V19.5749H141.902V11.5061C141.902 9.35446 141.364 7.74071 140.396 6.77246Z" fill="#EF3B66"></path><path d="M116.405 17.746C116.405 18.7143 115.544 19.5749 114.576 19.5749C113.608 19.5749 112.747 18.7143 112.747 17.746C112.747 16.7778 113.608 15.9171 114.576 15.9171C115.544 15.9171 116.405 16.7778 116.405 17.746Z" fill="#EF3B66"></path><path d="M36.363 13.5501V8.60132H40.3436V5.26623H36.363V2.03873H32.8128V14.1956C32.8128 17.7459 34.8569 19.6824 38.6223 19.6824H40.6664V16.3473H39.0526C37.3313 16.4549 36.363 15.3791 36.363 13.5501Z" fill="#EF3B66"></path><path d="M49.3809 10.8607C47.6596 10.5379 46.1534 10.3228 46.1534 9.4621C46.1534 8.70901 47.1217 7.95593 48.843 7.95593C50.5643 7.95593 51.6402 8.70901 51.6402 9.78485V10.2152H55.1904V9.78485C55.1904 6.8801 52.716 4.83601 48.9506 4.83601C45.1852 4.83601 42.7108 6.77251 42.7108 9.67726C42.7108 12.9048 45.9382 13.4427 48.5202 13.873C50.3492 14.1958 51.9629 14.5185 51.9629 15.5943C51.9629 16.5626 50.5643 16.9929 49.2733 16.9929C47.2292 16.9929 46.0458 16.2398 46.0458 14.9488V14.5185H42.4956V14.9488C42.4956 17.9612 45.0776 20.0053 49.0582 20.0053C52.2857 20.0053 55.5132 18.4991 55.5132 15.2716C55.5132 11.9365 52.0705 11.3986 49.3809 10.8607Z" fill="#EF3B66"></path></svg>