<svg width="120" height="40" viewBox="0 0 120 40" fill="none" xmlns="http://www.w3.org/2000/svg">
<rect y="11" width="18" height="18" rx="4" fill="#B0B0B0"/>
<path d="M27.776 28V10.48H32.24V28H27.776ZM31.76 28V24.112H38.864V28H31.76ZM47.4731 28.48C46.3051 28.48 45.2651 28.304 44.3531 27.952C43.4411 27.6 42.6651 27.112 42.0251 26.488C41.4011 25.864 40.9211 25.144 40.5851 24.328C40.2651 23.512 40.1051 22.64 40.1051 21.712V21.136C40.1051 20.176 40.2731 19.28 40.6091 18.448C40.9611 17.616 41.4571 16.888 42.0971 16.264C42.7371 15.64 43.5131 15.152 44.4251 14.8C45.3371 14.448 46.3531 14.272 47.4731 14.272C48.6091 14.272 49.6251 14.448 50.5211 14.8C51.4331 15.152 52.2091 15.64 52.8491 16.264C53.4891 16.888 53.9771 17.616 54.3131 18.448C54.6651 19.28 54.8411 20.176 54.8411 21.136V21.712C54.8411 22.64 54.6731 23.512 54.3371 24.328C54.0171 25.144 53.5371 25.864 52.8971 26.488C52.2731 27.112 51.5051 27.6 50.5931 27.952C49.6811 28.304 48.6411 28.48 47.4731 28.48ZM47.4731 24.832C48.1451 24.832 48.6971 24.688 49.1291 24.4C49.5771 24.112 49.9131 23.712 50.1371 23.2C50.3611 22.672 50.4731 22.08 50.4731 21.424C50.4731 20.736 50.3531 20.136 50.1131 19.624C49.8891 19.096 49.5531 18.68 49.1051 18.376C48.6571 18.072 48.1131 17.92 47.4731 17.92C46.8331 17.92 46.2891 18.072 45.8411 18.376C45.3931 18.68 45.0491 19.096 44.8091 19.624C44.5851 20.136 44.4731 20.736 44.4731 21.424C44.4731 22.08 44.5851 22.672 44.8091 23.2C45.0331 23.712 45.3691 24.112 45.8171 24.4C46.2651 24.688 46.8171 24.832 47.4731 24.832ZM62.5364 33.304C61.8804 33.304 61.2004 33.28 60.4964 33.232C59.8084 33.184 59.1844 33.12 58.6244 33.04V29.392C59.1844 29.456 59.8084 29.512 60.4964 29.56C61.1844 29.624 61.8164 29.656 62.3924 29.656C63.3844 29.656 64.1924 29.552 64.8164 29.344C65.4564 29.136 65.9284 28.816 66.2324 28.384C66.5364 27.952 66.6884 27.4 66.6884 26.728V24.04L67.3604 22.6C67.3284 23.72 67.1124 24.696 66.7124 25.528C66.3124 26.344 65.7364 26.976 64.9844 27.424C64.2484 27.872 63.3524 28.096 62.2964 28.096C61.4004 28.096 60.5924 27.936 59.8724 27.616C59.1524 27.296 58.5364 26.848 58.0244 26.272C57.5284 25.68 57.1444 24.984 56.8724 24.184C56.6004 23.384 56.4644 22.512 56.4644 21.568V20.992C56.4644 20.048 56.6084 19.176 56.8964 18.376C57.1844 17.56 57.6004 16.856 58.1444 16.264C58.6884 15.656 59.3284 15.192 60.0644 14.872C60.8164 14.536 61.6484 14.368 62.5604 14.368C63.6164 14.368 64.5284 14.608 65.2964 15.088C66.0644 15.552 66.6644 16.232 67.0964 17.128C67.5284 18.024 67.7604 19.112 67.7924 20.392L67.3124 20.56V14.752H70.7684V26.44C70.7684 28.072 70.4644 29.392 69.8564 30.4C69.2484 31.408 68.3284 32.144 67.0964 32.608C65.8804 33.072 64.3604 33.304 62.5364 33.304ZM63.7604 24.496C64.2884 24.496 64.7604 24.376 65.1764 24.136C65.6084 23.896 65.9524 23.552 66.2084 23.104C66.4644 22.64 66.5924 22.088 66.5924 21.448V20.872C66.5924 20.248 66.4564 19.72 66.1844 19.288C65.9284 18.856 65.5844 18.528 65.1524 18.304C64.7204 18.08 64.2564 17.968 63.7604 17.968C63.1844 17.968 62.6724 18.104 62.2244 18.376C61.7924 18.648 61.4484 19.032 61.1924 19.528C60.9524 20.024 60.8324 20.608 60.8324 21.28C60.8324 21.952 60.9524 22.528 61.1924 23.008C61.4484 23.488 61.7924 23.856 62.2244 24.112C62.6724 24.368 63.1844 24.496 63.7604 24.496ZM80.4028 28.48C79.2348 28.48 78.1948 28.304 77.2828 27.952C76.3708 27.6 75.5948 27.112 74.9548 26.488C74.3308 25.864 73.8508 25.144 73.5148 24.328C73.1948 23.512 73.0348 22.64 73.0348 21.712V21.136C73.0348 20.176 73.2028 19.28 73.5388 18.448C73.8908 17.616 74.3868 16.888 75.0268 16.264C75.6668 15.64 76.4428 15.152 77.3548 14.8C78.2668 14.448 79.2828 14.272 80.4028 14.272C81.5388 14.272 82.5548 14.448 83.4508 14.8C84.3628 15.152 85.1388 15.64 85.7787 16.264C86.4188 16.888 86.9068 17.616 87.2428 18.448C87.5948 19.28 87.7708 20.176 87.7708 21.136V21.712C87.7708 22.64 87.6028 23.512 87.2668 24.328C86.9468 25.144 86.4668 25.864 85.8268 26.488C85.2028 27.112 84.4348 27.6 83.5228 27.952C82.6108 28.304 81.5708 28.48 80.4028 28.48ZM80.4028 24.832C81.0748 24.832 81.6268 24.688 82.0588 24.4C82.5068 24.112 82.8428 23.712 83.0668 23.2C83.2908 22.672 83.4028 22.08 83.4028 21.424C83.4028 20.736 83.2828 20.136 83.0428 19.624C82.8188 19.096 82.4828 18.68 82.0348 18.376C81.5868 18.072 81.0428 17.92 80.4028 17.92C79.7628 17.92 79.2188 18.072 78.7708 18.376C78.3228 18.68 77.9788 19.096 77.7388 19.624C77.5148 20.136 77.4028 20.736 77.4028 21.424C77.4028 22.08 77.5148 22.672 77.7388 23.2C77.9628 23.712 78.2988 24.112 78.7468 24.4C79.1948 24.688 79.7468 24.832 80.4028 24.832Z" fill="white"/>
</svg>
